<svg xmlns="http://www.w3.org/2000/svg" xmlns:xlink="http://www.w3.org/1999/xlink" viewBox="0 0 258.52 230.47"><defs><style>.cls-1{fill:url(#未命名的渐变_15);}.cls-2{fill:#fff;}.cls-3{fill:#f7535f;}</style><linearGradient id="未命名的渐变_15" x1="218.13" y1="204.11" x2="40.38" y2="26.36" gradientUnits="userSpaceOnUse"><stop offset="0" stop-color="#20b1ff"/><stop offset="0.97" stop-color="#0153b5"/><stop offset="1" stop-color="#0050b3"/></linearGradient></defs><g id="图层_2" data-name="图层 2"><g id="英文文字反白"><path class="cls-1" d="M255.22,102.94,202.88,12.29A24.56,24.56,0,0,0,181.6,0H76.92A24.58,24.58,0,0,0,55.63,12.29L3.29,102.94a24.58,24.58,0,0,0,0,24.58l52.34,90.66a24.6,24.6,0,0,0,21.29,12.29H181.6a24.58,24.58,0,0,0,21.28-12.29l52.34-90.66A24.58,24.58,0,0,0,255.22,102.94Z"/><polygon class="cls-2" points="205.65 172.18 166.14 172.18 126.62 101.11 136.35 55.88 177.87 128.84 187.75 55.92 221.5 55.92 205.65 172.18"/><path class="cls-3" d="M136.36,55.88,129,105.4l-7.86,53a21,21,0,0,1-5.76,9.86,14.13,14.13,0,0,1-10.09,3.9H40.06L44,144.65l8,7.81H83.49L95.42,63.69l-6-7.81"/></g></g></svg>